{
	"asset":{
		"generator":"Khronos glTF Blender I/O v4.0.44",
		"version":"2.0"
	},
	"scene":0,
	"scenes":[
		{
			"name":"Scene",
			"nodes":[
				0
			]
		}
	],
	"nodes":[
		{
			"mesh":0,
			"name":"Icosphere"
		}
	],
	"materials":[
		{
			"doubleSided":true,
			"name":"AsteroidSurface",
			"pbrMetallicRoughness":{
				"baseColorFactor":[
					0.27576231956481934,
					0.27576231956481934,
					0.27576231956481934,
					1
				],
				"metallicFactor":0
			}
		}
	],
	"meshes":[
		{
			"name":"Icosphere",
			"primitives":[
				{
					"attributes":{
						"POSITION":0,
						"NORMAL":1,
						"TEXCOORD_0":2
					},
					"indices":3,
					"material":0
				}
			]
		}
	],
	"accessors":[
		{
			"bufferView":0,
			"componentType":5126,
			"count":293,
			"max":[
				1.0740752220153809,
				0.9569271206855774,
				0.8796162605285645
			],
			"min":[
				-1.1116572618484497,
				-1.07771897315979,
				-2.1220016479492188
			],
			"type":"VEC3"
		},
		{
			"bufferView":1,
			"componentType":5126,
			"count":293,
			"type":"VEC3"
		},
		{
			"bufferView":2,
			"componentType":5126,
			"count":293,
			"type":"VEC2"
		},
		{
			"bufferView":3,
			"componentType":5123,
			"count":1092,
			"type":"SCALAR"
		}
	],
	"bufferViews":[
		{
			"buffer":0,
			"byteLength":3516,
			"byteOffset":0,
			"target":34962
		},
		{
			"buffer":0,
			"byteLength":3516,
			"byteOffset":3516,
			"target":34962
		},
		{
			"buffer":0,
			"byteLength":2344,
			"byteOffset":7032,
			"target":34962
		},
		{
			"buffer":0,
			"byteLength":2184,
			"byteOffset":9376,
			"target":34963
		}
	],
	"buffers":[
		{
			"byteLength":11560,
			"uri":"asteroids.bin"
		}
	]
}
