{
	"asset":{
		"generator":"Khronos glTF Blender I/O v4.0.44",
		"version":"2.0"
	},
	"scene":0,
	"scenes":[
		{
			"name":"Scene",
			"nodes":[
				0,
				1,
				2,
				3
			]
		}
	],
	"nodes":[
		{
			"mesh":0,
			"name":"OuterWalls"
		},
		{
			"mesh":1,
			"name":"CockpitBottomWindow"
		},
		{
			"mesh":2,
			"name":"ChairBase"
		},
		{
			"mesh":3,
			"name":"BodyWalls"
		}
	],
	"materials":[
		{
			"doubleSided":true,
			"name":"Shipwalls",
			"pbrMetallicRoughness":{
				"baseColorFactor":[
					0.4544734060764313,
					0.4544734060764313,
					0.4544734060764313,
					1
				],
				"metallicFactor":0.6010362505912781,
				"roughnessFactor":0.727979302406311
			}
		},
		{
			"doubleSided":true,
			"name":"Glass",
			"pbrMetallicRoughness":{
				"baseColorFactor":[
					0.800000011920929,
					0.800000011920929,
					0.800000011920929,
					1
				],
				"metallicFactor":0,
				"roughnessFactor":0.1165803074836731
			}
		}
	],
	"meshes":[
		{
			"name":"Circle",
			"primitives":[
				{
					"attributes":{
						"POSITION":0,
						"NORMAL":1,
						"TEXCOORD_0":2
					},
					"indices":3,
					"material":0
				}
			]
		},
		{
			"name":"Circle.001",
			"primitives":[
				{
					"attributes":{
						"POSITION":4,
						"NORMAL":5,
						"TEXCOORD_0":6
					},
					"indices":7,
					"material":1
				}
			]
		},
		{
			"name":"Circle.002",
			"primitives":[
				{
					"attributes":{
						"POSITION":8,
						"NORMAL":9,
						"TEXCOORD_0":10
					},
					"indices":11,
					"material":0
				}
			]
		},
		{
			"name":"Circle.003",
			"primitives":[
				{
					"attributes":{
						"POSITION":12,
						"NORMAL":13,
						"TEXCOORD_0":14
					},
					"indices":15,
					"material":0
				}
			]
		}
	],
	"accessors":[
		{
			"bufferView":0,
			"componentType":5126,
			"count":1712,
			"max":[
				5.100000381469727,
				3.5999999046325684,
				5.100000381469727
			],
			"min":[
				-5.100000381469727,
				0,
				-5.840568542480469
			],
			"type":"VEC3"
		},
		{
			"bufferView":1,
			"componentType":5126,
			"count":1712,
			"type":"VEC3"
		},
		{
			"bufferView":2,
			"componentType":5126,
			"count":1712,
			"type":"VEC2"
		},
		{
			"bufferView":3,
			"componentType":5123,
			"count":6384,
			"type":"SCALAR"
		},
		{
			"bufferView":4,
			"componentType":5126,
			"count":512,
			"max":[
				2.4969849586486816,
				0.10000000149011612,
				2.4969849586486816
			],
			"min":[
				-2.4969849586486816,
				0,
				-2.4969849586486816
			],
			"type":"VEC3"
		},
		{
			"bufferView":5,
			"componentType":5126,
			"count":512,
			"type":"VEC3"
		},
		{
			"bufferView":6,
			"componentType":5126,
			"count":512,
			"type":"VEC2"
		},
		{
			"bufferView":7,
			"componentType":5123,
			"count":1536,
			"type":"SCALAR"
		},
		{
			"bufferView":8,
			"componentType":5126,
			"count":320,
			"max":[
				0.995175838470459,
				0.10000000149011612,
				0.995175838470459
			],
			"min":[
				-0.995175838470459,
				-1.5,
				-0.995175838470459
			],
			"type":"VEC3"
		},
		{
			"bufferView":9,
			"componentType":5126,
			"count":320,
			"type":"VEC3"
		},
		{
			"bufferView":10,
			"componentType":5126,
			"count":320,
			"type":"VEC2"
		},
		{
			"bufferView":11,
			"componentType":5123,
			"count":1140,
			"type":"SCALAR"
		},
		{
			"bufferView":12,
			"componentType":5126,
			"count":608,
			"max":[
				3.545058488845825,
				3.5,
				-5.840568542480469
			],
			"min":[
				-3.545058488845825,
				-2.5980326223695727e-10,
				-21.198036193847656
			],
			"type":"VEC3"
		},
		{
			"bufferView":13,
			"componentType":5126,
			"count":608,
			"type":"VEC3"
		},
		{
			"bufferView":14,
			"componentType":5126,
			"count":608,
			"type":"VEC2"
		},
		{
			"bufferView":15,
			"componentType":5123,
			"count":2358,
			"type":"SCALAR"
		}
	],
	"bufferViews":[
		{
			"buffer":0,
			"byteLength":20544,
			"byteOffset":0,
			"target":34962
		},
		{
			"buffer":0,
			"byteLength":20544,
			"byteOffset":20544,
			"target":34962
		},
		{
			"buffer":0,
			"byteLength":13696,
			"byteOffset":41088,
			"target":34962
		},
		{
			"buffer":0,
			"byteLength":12768,
			"byteOffset":54784,
			"target":34963
		},
		{
			"buffer":0,
			"byteLength":6144,
			"byteOffset":67552,
			"target":34962
		},
		{
			"buffer":0,
			"byteLength":6144,
			"byteOffset":73696,
			"target":34962
		},
		{
			"buffer":0,
			"byteLength":4096,
			"byteOffset":79840,
			"target":34962
		},
		{
			"buffer":0,
			"byteLength":3072,
			"byteOffset":83936,
			"target":34963
		},
		{
			"buffer":0,
			"byteLength":3840,
			"byteOffset":87008,
			"target":34962
		},
		{
			"buffer":0,
			"byteLength":3840,
			"byteOffset":90848,
			"target":34962
		},
		{
			"buffer":0,
			"byteLength":2560,
			"byteOffset":94688,
			"target":34962
		},
		{
			"buffer":0,
			"byteLength":2280,
			"byteOffset":97248,
			"target":34963
		},
		{
			"buffer":0,
			"byteLength":7296,
			"byteOffset":99528,
			"target":34962
		},
		{
			"buffer":0,
			"byteLength":7296,
			"byteOffset":106824,
			"target":34962
		},
		{
			"buffer":0,
			"byteLength":4864,
			"byteOffset":114120,
			"target":34962
		},
		{
			"buffer":0,
			"byteLength":4716,
			"byteOffset":118984,
			"target":34963
		}
	],
	"buffers":[
		{
			"byteLength":123700,
			"uri":"Spaceship.bin"
		}
	]
}
