{
	"asset":{
		"generator":"Khronos glTF Blender I/O v4.0.44",
		"version":"2.0"
	},
	"scene":0,
	"scenes":[
		{
			"name":"Scene",
			"nodes":[
				0,
				1,
				2,
				3,
				4,
				5,
				6,
				7,
				8,
				9,
				10,
				11
			]
		}
	],
	"nodes":[
		{
			"mesh":0,
			"name":"ChairBase"
		},
		{
			"mesh":1,
			"name":"CockpitBottomWindow"
		},
		{
			"mesh":2,
			"name":"CockpitToTunnelTransition",
			"translation":[
				0,
				0.053056057542562485,
				0
			]
		},
		{
			"mesh":3,
			"name":"ControlPanel"
		},
		{
			"mesh":4,
			"name":"CrowsNestTunnel"
		},
		{
			"mesh":5,
			"name":"WorkshopWalls"
		},
		{
			"mesh":6,
			"name":"RoofNest",
			"translation":[
				0,
				11.881401062011719,
				0
			]
		},
		{
			"mesh":7,
			"name":"Roof",
			"translation":[
				0,
				0.6591035723686218,
				0
			]
		},
		{
			"mesh":8,
			"name":"OuterWalls"
		},
		{
			"mesh":9,
			"name":"NestSphere",
			"scale":[
				1.154146432876587,
				1.154146432876587,
				1.154146432876587
			],
			"translation":[
				0,
				4.449946880340576,
				0
			]
		},
		{
			"mesh":10,
			"name":"DoorWorkshopNeg",
			"translation":[
				0,
				0.018375754356384277,
				-5.2072367668151855
			]
		},
		{
			"mesh":11,
			"name":"DoorWorkshopPos",
			"translation":[
				0,
				0.018375754356384277,
				-5.2072367668151855
			]
		}
	],
	"materials":[
		{
			"doubleSided":true,
			"name":"Shipwalls",
			"pbrMetallicRoughness":{
				"baseColorFactor":[
					0.4544734060764313,
					0.4544734060764313,
					0.4544734060764313,
					1
				],
				"metallicFactor":0.6010362505912781,
				"roughnessFactor":0.727979302406311
			}
		},
		{
			"doubleSided":true,
			"name":"Glass",
			"pbrMetallicRoughness":{
				"baseColorFactor":[
					0.800000011920929,
					0.800000011920929,
					0.800000011920929,
					1
				],
				"metallicFactor":0,
				"roughnessFactor":0.1165803074836731
			}
		},
		{
			"doubleSided":true,
			"name":"ControlPanelIron",
			"pbrMetallicRoughness":{
				"baseColorFactor":[
					0.08256218582391739,
					0.08256218582391739,
					0.08256218582391739,
					1
				],
				"metallicFactor":0.7668393850326538,
				"roughnessFactor":0.1787564754486084
			}
		},
		{
			"doubleSided":true,
			"name":"ControlPanelTop",
			"pbrMetallicRoughness":{
				"baseColorFactor":[
					0.076657235622406,
					0.0080482866615057,
					0.006751528475433588,
					1
				],
				"metallicFactor":0,
				"roughnessFactor":0.10621762275695801
			}
		},
		{
			"doubleSided":true,
			"name":"HoloGround",
			"pbrMetallicRoughness":{
				"baseColorFactor":[
					0,
					0,
					0,
					1
				]
			}
		},
		{
			"doubleSided":true,
			"name":"Roof",
			"pbrMetallicRoughness":{
				"baseColorFactor":[
					0.8000229597091675,
					0.09967996180057526,
					0.12463507056236267,
					1
				],
				"roughnessFactor":0.39637306332588196
			}
		},
		{
			"doubleSided":true,
			"name":"Glass",
			"pbrMetallicRoughness":{
				"baseColorFactor":[
					0.800000011920929,
					0.800000011920929,
					0.800000011920929,
					1
				],
				"metallicFactor":0,
				"roughnessFactor":0.1165803074836731
			}
		}
	],
	"meshes":[
		{
			"name":"Circle.002",
			"primitives":[
				{
					"attributes":{
						"POSITION":0,
						"NORMAL":1,
						"TEXCOORD_0":2
					},
					"indices":3,
					"material":0
				}
			]
		},
		{
			"name":"Circle.001",
			"primitives":[
				{
					"attributes":{
						"POSITION":4,
						"NORMAL":5,
						"TEXCOORD_0":6
					},
					"indices":7,
					"material":1
				}
			]
		},
		{
			"name":"Circle.006",
			"primitives":[
				{
					"attributes":{
						"POSITION":8,
						"NORMAL":9,
						"TEXCOORD_0":10
					},
					"indices":11,
					"material":0
				}
			]
		},
		{
			"name":"Circle.005",
			"primitives":[
				{
					"attributes":{
						"POSITION":12,
						"NORMAL":13,
						"TEXCOORD_0":14
					},
					"indices":15,
					"material":2
				},
				{
					"attributes":{
						"POSITION":16,
						"NORMAL":17,
						"TEXCOORD_0":18
					},
					"indices":19,
					"material":0
				},
				{
					"attributes":{
						"POSITION":20,
						"NORMAL":21,
						"TEXCOORD_0":22
					},
					"indices":23,
					"material":3
				},
				{
					"attributes":{
						"POSITION":24,
						"NORMAL":25,
						"TEXCOORD_0":26
					},
					"indices":27,
					"material":4
				}
			]
		},
		{
			"name":"Circle.004",
			"primitives":[
				{
					"attributes":{
						"POSITION":28,
						"NORMAL":29,
						"TEXCOORD_0":30
					},
					"indices":31,
					"material":5
				}
			]
		},
		{
			"name":"Circle.003",
			"primitives":[
				{
					"attributes":{
						"POSITION":32,
						"NORMAL":33,
						"TEXCOORD_0":34
					},
					"indices":35,
					"material":0
				}
			]
		},
		{
			"name":"BezierCircle",
			"primitives":[
				{
					"attributes":{
						"POSITION":36,
						"NORMAL":37,
						"TEXCOORD_0":38
					},
					"indices":39,
					"material":5
				}
			]
		},
		{
			"name":"OuterWalls.004",
			"primitives":[
				{
					"attributes":{
						"POSITION":40,
						"NORMAL":41,
						"TEXCOORD_0":42
					},
					"indices":43,
					"material":5
				}
			]
		},
		{
			"name":"Circle",
			"primitives":[
				{
					"attributes":{
						"POSITION":44,
						"NORMAL":45,
						"TEXCOORD_0":46
					},
					"indices":47,
					"material":0
				}
			]
		},
		{
			"name":"Sphere",
			"primitives":[
				{
					"attributes":{
						"POSITION":48,
						"NORMAL":49,
						"TEXCOORD_0":50
					},
					"indices":51,
					"material":6
				}
			]
		},
		{
			"name":"Cube.009",
			"primitives":[
				{
					"attributes":{
						"POSITION":52,
						"NORMAL":53,
						"TEXCOORD_0":54
					},
					"indices":55
				}
			]
		},
		{
			"name":"Cube.010",
			"primitives":[
				{
					"attributes":{
						"POSITION":56,
						"NORMAL":57,
						"TEXCOORD_0":58
					},
					"indices":59
				}
			]
		}
	],
	"accessors":[
		{
			"bufferView":0,
			"componentType":5126,
			"count":448,
			"max":[
				0.995175838470459,
				0.10000000149011612,
				0.995175838470459
			],
			"min":[
				-0.995175838470459,
				-1.5,
				-0.995175838470459
			],
			"type":"VEC3"
		},
		{
			"bufferView":1,
			"componentType":5126,
			"count":448,
			"type":"VEC3"
		},
		{
			"bufferView":2,
			"componentType":5126,
			"count":448,
			"type":"VEC2"
		},
		{
			"bufferView":3,
			"componentType":5123,
			"count":1524,
			"type":"SCALAR"
		},
		{
			"bufferView":4,
			"componentType":5126,
			"count":512,
			"max":[
				2.4969849586486816,
				0.10000000149011612,
				2.4969849586486816
			],
			"min":[
				-2.4969849586486816,
				0,
				-2.4969849586486816
			],
			"type":"VEC3"
		},
		{
			"bufferView":5,
			"componentType":5126,
			"count":512,
			"type":"VEC3"
		},
		{
			"bufferView":6,
			"componentType":5126,
			"count":512,
			"type":"VEC2"
		},
		{
			"bufferView":7,
			"componentType":5123,
			"count":1536,
			"type":"SCALAR"
		},
		{
			"bufferView":8,
			"componentType":5126,
			"count":896,
			"max":[
				2.7189743518829346,
				3.599060297012329,
				2.7189745903015137
			],
			"min":[
				-2.7189743518829346,
				3.2869019508361816,
				-2.7189741134643555
			],
			"type":"VEC3"
		},
		{
			"bufferView":9,
			"componentType":5126,
			"count":896,
			"type":"VEC3"
		},
		{
			"bufferView":10,
			"componentType":5126,
			"count":896,
			"type":"VEC2"
		},
		{
			"bufferView":11,
			"componentType":5123,
			"count":2688,
			"type":"SCALAR"
		},
		{
			"bufferView":12,
			"componentType":5126,
			"count":76,
			"max":[
				2.1770119667053223,
				1.0813298225402832,
				3.469264030456543
			],
			"min":[
				-2.1770119667053223,
				1.0145177841186523,
				1.9963990449905396
			],
			"type":"VEC3"
		},
		{
			"bufferView":13,
			"componentType":5126,
			"count":76,
			"type":"VEC3"
		},
		{
			"bufferView":14,
			"componentType":5126,
			"count":76,
			"type":"VEC2"
		},
		{
			"bufferView":15,
			"componentType":5123,
			"count":204,
			"type":"SCALAR"
		},
		{
			"bufferView":16,
			"componentType":5126,
			"count":484,
			"max":[
				2.2432124614715576,
				1.0256160497665405,
				3.535996198654175
			],
			"min":[
				-2.2432124614715576,
				0.08890184015035629,
				1.9301955699920654
			],
			"type":"VEC3"
		},
		{
			"bufferView":17,
			"componentType":5126,
			"count":484,
			"type":"VEC3"
		},
		{
			"bufferView":18,
			"componentType":5126,
			"count":484,
			"type":"VEC2"
		},
		{
			"bufferView":19,
			"componentType":5123,
			"count":1308,
			"type":"SCALAR"
		},
		{
			"bufferView":20,
			"componentType":5126,
			"count":416,
			"max":[
				2.2432124614715576,
				1.394368052482605,
				3.535996198654175
			],
			"min":[
				-2.2432124614715576,
				1.070231556892395,
				1.9301955699920654
			],
			"type":"VEC3"
		},
		{
			"bufferView":21,
			"componentType":5126,
			"count":416,
			"type":"VEC3"
		},
		{
			"bufferView":22,
			"componentType":5126,
			"count":416,
			"type":"VEC2"
		},
		{
			"bufferView":23,
			"componentType":5123,
			"count":1062,
			"type":"SCALAR"
		},
		{
			"bufferView":24,
			"componentType":5126,
			"count":22,
			"max":[
				1.2935842275619507,
				1.3070071935653687,
				3.3792824745178223
			],
			"min":[
				-1.6582752466201782,
				1.0900001525878906,
				2.4497148990631104
			],
			"type":"VEC3"
		},
		{
			"bufferView":25,
			"componentType":5126,
			"count":22,
			"type":"VEC3"
		},
		{
			"bufferView":26,
			"componentType":5126,
			"count":22,
			"type":"VEC2"
		},
		{
			"bufferView":27,
			"componentType":5123,
			"count":54,
			"type":"SCALAR"
		},
		{
			"bufferView":28,
			"componentType":5126,
			"count":1472,
			"max":[
				2.6646742820739746,
				7.930147171020508,
				2.6646742820739746
			],
			"min":[
				-2.6646742820739746,
				3.5999999046325684,
				-2.6646740436553955
			],
			"type":"VEC3"
		},
		{
			"bufferView":29,
			"componentType":5126,
			"count":1472,
			"type":"VEC3"
		},
		{
			"bufferView":30,
			"componentType":5126,
			"count":1472,
			"type":"VEC2"
		},
		{
			"bufferView":31,
			"componentType":5123,
			"count":4608,
			"type":"SCALAR"
		},
		{
			"bufferView":32,
			"componentType":5126,
			"count":644,
			"max":[
				4.287594795227051,
				3.5,
				-5.840568542480469
			],
			"min":[
				-4.287594795227051,
				-2.5980326223695727e-10,
				-21.329004287719727
			],
			"type":"VEC3"
		},
		{
			"bufferView":33,
			"componentType":5126,
			"count":644,
			"type":"VEC3"
		},
		{
			"bufferView":34,
			"componentType":5126,
			"count":644,
			"type":"VEC2"
		},
		{
			"bufferView":35,
			"componentType":5123,
			"count":2520,
			"type":"SCALAR"
		},
		{
			"bufferView":36,
			"componentType":5126,
			"count":637,
			"max":[
				3.0401954650878906,
				1.3077393770217896,
				3.0401954650878906
			],
			"min":[
				-3.0401954650878906,
				-0.7646436095237732,
				-3.0401952266693115
			],
			"type":"VEC3"
		},
		{
			"bufferView":37,
			"componentType":5126,
			"count":637,
			"type":"VEC3"
		},
		{
			"bufferView":38,
			"componentType":5126,
			"count":637,
			"type":"VEC2"
		},
		{
			"bufferView":39,
			"componentType":5123,
			"count":3594,
			"type":"SCALAR"
		},
		{
			"bufferView":40,
			"componentType":5126,
			"count":3932,
			"max":[
				6.285189628601074,
				4.90775203704834,
				6.285189628601074
			],
			"min":[
				-6.285189628601074,
				2.674762487411499,
				-22.514142990112305
			],
			"type":"VEC3"
		},
		{
			"bufferView":41,
			"componentType":5126,
			"count":3932,
			"type":"VEC3"
		},
		{
			"bufferView":42,
			"componentType":5126,
			"count":3932,
			"type":"VEC2"
		},
		{
			"bufferView":43,
			"componentType":5123,
			"count":20892,
			"type":"SCALAR"
		},
		{
			"bufferView":44,
			"componentType":5126,
			"count":2467,
			"max":[
				5.100000381469727,
				3.5999999046325684,
				5.100000381469727
			],
			"min":[
				-5.100000381469727,
				-0.4988747239112854,
				-5.840568542480469
			],
			"type":"VEC3"
		},
		{
			"bufferView":45,
			"componentType":5126,
			"count":2467,
			"type":"VEC3"
		},
		{
			"bufferView":46,
			"componentType":5126,
			"count":2467,
			"type":"VEC2"
		},
		{
			"bufferView":47,
			"componentType":5123,
			"count":8622,
			"type":"SCALAR"
		},
		{
			"bufferView":48,
			"componentType":5126,
			"count":1558,
			"max":[
				2.5699994564056396,
				6.967657566070557,
				2.5699989795684814
			],
			"min":[
				-2.5699985027313232,
				2.9791009426116943,
				-2.569999933242798
			],
			"type":"VEC3"
		},
		{
			"bufferView":49,
			"componentType":5126,
			"count":1558,
			"type":"VEC3"
		},
		{
			"bufferView":50,
			"componentType":5126,
			"count":1558,
			"type":"VEC2"
		},
		{
			"bufferView":51,
			"componentType":5123,
			"count":8448,
			"type":"SCALAR"
		},
		{
			"bufferView":52,
			"componentType":5126,
			"count":24,
			"max":[
				0,
				3.392094135284424,
				0.009999990463256836
			],
			"min":[
				-0.9619853496551514,
				0,
				-0.009999990463256836
			],
			"type":"VEC3"
		},
		{
			"bufferView":53,
			"componentType":5126,
			"count":24,
			"type":"VEC3"
		},
		{
			"bufferView":54,
			"componentType":5126,
			"count":24,
			"type":"VEC2"
		},
		{
			"bufferView":55,
			"componentType":5123,
			"count":36,
			"type":"SCALAR"
		},
		{
			"bufferView":56,
			"componentType":5126,
			"count":24,
			"max":[
				0.9619853496551514,
				3.392094135284424,
				0.009999990463256836
			],
			"min":[
				0,
				0,
				-0.009999990463256836
			],
			"type":"VEC3"
		},
		{
			"bufferView":57,
			"componentType":5126,
			"count":24,
			"type":"VEC3"
		},
		{
			"bufferView":58,
			"componentType":5126,
			"count":24,
			"type":"VEC2"
		},
		{
			"bufferView":59,
			"componentType":5123,
			"count":36,
			"type":"SCALAR"
		}
	],
	"bufferViews":[
		{
			"buffer":0,
			"byteLength":5376,
			"byteOffset":0,
			"target":34962
		},
		{
			"buffer":0,
			"byteLength":5376,
			"byteOffset":5376,
			"target":34962
		},
		{
			"buffer":0,
			"byteLength":3584,
			"byteOffset":10752,
			"target":34962
		},
		{
			"buffer":0,
			"byteLength":3048,
			"byteOffset":14336,
			"target":34963
		},
		{
			"buffer":0,
			"byteLength":6144,
			"byteOffset":17384,
			"target":34962
		},
		{
			"buffer":0,
			"byteLength":6144,
			"byteOffset":23528,
			"target":34962
		},
		{
			"buffer":0,
			"byteLength":4096,
			"byteOffset":29672,
			"target":34962
		},
		{
			"buffer":0,
			"byteLength":3072,
			"byteOffset":33768,
			"target":34963
		},
		{
			"buffer":0,
			"byteLength":10752,
			"byteOffset":36840,
			"target":34962
		},
		{
			"buffer":0,
			"byteLength":10752,
			"byteOffset":47592,
			"target":34962
		},
		{
			"buffer":0,
			"byteLength":7168,
			"byteOffset":58344,
			"target":34962
		},
		{
			"buffer":0,
			"byteLength":5376,
			"byteOffset":65512,
			"target":34963
		},
		{
			"buffer":0,
			"byteLength":912,
			"byteOffset":70888,
			"target":34962
		},
		{
			"buffer":0,
			"byteLength":912,
			"byteOffset":71800,
			"target":34962
		},
		{
			"buffer":0,
			"byteLength":608,
			"byteOffset":72712,
			"target":34962
		},
		{
			"buffer":0,
			"byteLength":408,
			"byteOffset":73320,
			"target":34963
		},
		{
			"buffer":0,
			"byteLength":5808,
			"byteOffset":73728,
			"target":34962
		},
		{
			"buffer":0,
			"byteLength":5808,
			"byteOffset":79536,
			"target":34962
		},
		{
			"buffer":0,
			"byteLength":3872,
			"byteOffset":85344,
			"target":34962
		},
		{
			"buffer":0,
			"byteLength":2616,
			"byteOffset":89216,
			"target":34963
		},
		{
			"buffer":0,
			"byteLength":4992,
			"byteOffset":91832,
			"target":34962
		},
		{
			"buffer":0,
			"byteLength":4992,
			"byteOffset":96824,
			"target":34962
		},
		{
			"buffer":0,
			"byteLength":3328,
			"byteOffset":101816,
			"target":34962
		},
		{
			"buffer":0,
			"byteLength":2124,
			"byteOffset":105144,
			"target":34963
		},
		{
			"buffer":0,
			"byteLength":264,
			"byteOffset":107268,
			"target":34962
		},
		{
			"buffer":0,
			"byteLength":264,
			"byteOffset":107532,
			"target":34962
		},
		{
			"buffer":0,
			"byteLength":176,
			"byteOffset":107796,
			"target":34962
		},
		{
			"buffer":0,
			"byteLength":108,
			"byteOffset":107972,
			"target":34963
		},
		{
			"buffer":0,
			"byteLength":17664,
			"byteOffset":108080,
			"target":34962
		},
		{
			"buffer":0,
			"byteLength":17664,
			"byteOffset":125744,
			"target":34962
		},
		{
			"buffer":0,
			"byteLength":11776,
			"byteOffset":143408,
			"target":34962
		},
		{
			"buffer":0,
			"byteLength":9216,
			"byteOffset":155184,
			"target":34963
		},
		{
			"buffer":0,
			"byteLength":7728,
			"byteOffset":164400,
			"target":34962
		},
		{
			"buffer":0,
			"byteLength":7728,
			"byteOffset":172128,
			"target":34962
		},
		{
			"buffer":0,
			"byteLength":5152,
			"byteOffset":179856,
			"target":34962
		},
		{
			"buffer":0,
			"byteLength":5040,
			"byteOffset":185008,
			"target":34963
		},
		{
			"buffer":0,
			"byteLength":7644,
			"byteOffset":190048,
			"target":34962
		},
		{
			"buffer":0,
			"byteLength":7644,
			"byteOffset":197692,
			"target":34962
		},
		{
			"buffer":0,
			"byteLength":5096,
			"byteOffset":205336,
			"target":34962
		},
		{
			"buffer":0,
			"byteLength":7188,
			"byteOffset":210432,
			"target":34963
		},
		{
			"buffer":0,
			"byteLength":47184,
			"byteOffset":217620,
			"target":34962
		},
		{
			"buffer":0,
			"byteLength":47184,
			"byteOffset":264804,
			"target":34962
		},
		{
			"buffer":0,
			"byteLength":31456,
			"byteOffset":311988,
			"target":34962
		},
		{
			"buffer":0,
			"byteLength":41784,
			"byteOffset":343444,
			"target":34963
		},
		{
			"buffer":0,
			"byteLength":29604,
			"byteOffset":385228,
			"target":34962
		},
		{
			"buffer":0,
			"byteLength":29604,
			"byteOffset":414832,
			"target":34962
		},
		{
			"buffer":0,
			"byteLength":19736,
			"byteOffset":444436,
			"target":34962
		},
		{
			"buffer":0,
			"byteLength":17244,
			"byteOffset":464172,
			"target":34963
		},
		{
			"buffer":0,
			"byteLength":18696,
			"byteOffset":481416,
			"target":34962
		},
		{
			"buffer":0,
			"byteLength":18696,
			"byteOffset":500112,
			"target":34962
		},
		{
			"buffer":0,
			"byteLength":12464,
			"byteOffset":518808,
			"target":34962
		},
		{
			"buffer":0,
			"byteLength":16896,
			"byteOffset":531272,
			"target":34963
		},
		{
			"buffer":0,
			"byteLength":288,
			"byteOffset":548168,
			"target":34962
		},
		{
			"buffer":0,
			"byteLength":288,
			"byteOffset":548456,
			"target":34962
		},
		{
			"buffer":0,
			"byteLength":192,
			"byteOffset":548744,
			"target":34962
		},
		{
			"buffer":0,
			"byteLength":72,
			"byteOffset":548936,
			"target":34963
		},
		{
			"buffer":0,
			"byteLength":288,
			"byteOffset":549008,
			"target":34962
		},
		{
			"buffer":0,
			"byteLength":288,
			"byteOffset":549296,
			"target":34962
		},
		{
			"buffer":0,
			"byteLength":192,
			"byteOffset":549584,
			"target":34962
		},
		{
			"buffer":0,
			"byteLength":72,
			"byteOffset":549776,
			"target":34963
		}
	],
	"buffers":[
		{
			"byteLength":549848,
			"uri":"Spaceship_v3.bin"
		}
	]
}
