{
	"asset":{
		"generator":"Khronos glTF Blender I/O v3.6.28",
		"version":"2.0"
	},
	"scene":0,
	"scenes":[
		{
			"name":"Scene",
			"nodes":[
				0,
				1,
				2,
				3,
				4,
				5,
				6,
				7,
				8,
				9,
				10
			]
		}
	],
	"nodes":[
		{
			"mesh":0,
			"name":"OuterWalls"
		},
		{
			"mesh":1,
			"name":"CockpitBottomWindow"
		},
		{
			"mesh":2,
			"name":"ChairBase"
		},
		{
			"mesh":3,
			"name":"WorkshopWalls"
		},
		{
			"mesh":4,
			"name":"CrowsNestTunnel"
		},
		{
			"mesh":5,
			"name":"ControlPanel"
		},
		{
			"mesh":6,
			"name":"Cylinder",
			"rotation":[
				0.20785054564476013,
				-0.6039429306983948,
				0.7510777711868286,
				0.16713280975818634
			],
			"translation":[
				1.5491383075714111,
				1.3178074359893799,
				2.584580421447754
			]
		},
		{
			"name":"RoofProfile",
			"translation":[
				10.783378601074219,
				7.434538841247559,
				0.8079866170883179
			]
		},
		{
			"mesh":7,
			"name":"RoofPrototype.001",
			"translation":[
				0,
				0.6591035723686218,
				0
			]
		},
		{
			"mesh":8,
			"name":"Sphere",
			"translation":[
				0,
				4.449946880340576,
				0
			]
		},
		{
			"mesh":9,
			"name":"BezierCircle",
			"translation":[
				0,
				10.641475677490234,
				0
			]
		}
	],
	"materials":[
		{
			"doubleSided":true,
			"name":"Shipwalls",
			"pbrMetallicRoughness":{
				"baseColorFactor":[
					0.4544734060764313,
					0.4544734060764313,
					0.4544734060764313,
					1
				],
				"metallicFactor":0.6010362505912781,
				"roughnessFactor":0.727979302406311
			}
		},
		{
			"doubleSided":true,
			"name":"Glass",
			"pbrMetallicRoughness":{
				"baseColorFactor":[
					0.800000011920929,
					0.800000011920929,
					0.800000011920929,
					1
				],
				"metallicFactor":0,
				"roughnessFactor":0.1165803074836731
			}
		},
		{
			"doubleSided":true,
			"name":"Roof",
			"pbrMetallicRoughness":{
				"baseColorFactor":[
					0.8000229597091675,
					0.09967996180057526,
					0.12463507056236267,
					1
				],
				"roughnessFactor":0.39637306332588196
			}
		},
		{
			"doubleSided":true,
			"name":"ControlPanelIron",
			"pbrMetallicRoughness":{
				"baseColorFactor":[
					0.08256218582391739,
					0.08256218582391739,
					0.08256218582391739,
					1
				],
				"metallicFactor":0.7668393850326538,
				"roughnessFactor":0.1787564754486084
			}
		},
		{
			"doubleSided":true,
			"name":"ControlPanelTop",
			"pbrMetallicRoughness":{
				"baseColorFactor":[
					0.076657235622406,
					0.0080482866615057,
					0.006751528475433588,
					1
				],
				"metallicFactor":0,
				"roughnessFactor":0.10621762275695801
			}
		},
		{
			"doubleSided":true,
			"name":"HoloGround",
			"pbrMetallicRoughness":{
				"baseColorFactor":[
					0,
					0,
					0,
					1
				]
			}
		},
		{
			"doubleSided":true,
			"name":"FuelMeter",
			"pbrMetallicRoughness":{
				"baseColorFactor":[
					0.800000011920929,
					0.800000011920929,
					0.800000011920929,
					1
				],
				"metallicFactor":0,
				"roughnessFactor":0.5
			}
		}
	],
	"meshes":[
		{
			"name":"Circle",
			"primitives":[
				{
					"attributes":{
						"POSITION":0,
						"NORMAL":1,
						"TEXCOORD_0":2
					},
					"indices":3,
					"material":0
				}
			]
		},
		{
			"name":"Circle.001",
			"primitives":[
				{
					"attributes":{
						"POSITION":4,
						"NORMAL":5,
						"TEXCOORD_0":6
					},
					"indices":7,
					"material":1
				}
			]
		},
		{
			"name":"Circle.002",
			"primitives":[
				{
					"attributes":{
						"POSITION":8,
						"NORMAL":9,
						"TEXCOORD_0":10
					},
					"indices":11,
					"material":0
				}
			]
		},
		{
			"name":"Circle.003",
			"primitives":[
				{
					"attributes":{
						"POSITION":12,
						"NORMAL":13,
						"TEXCOORD_0":14
					},
					"indices":15,
					"material":0
				}
			]
		},
		{
			"name":"Circle.004",
			"primitives":[
				{
					"attributes":{
						"POSITION":16,
						"NORMAL":17,
						"TEXCOORD_0":18
					},
					"indices":19,
					"material":2
				}
			]
		},
		{
			"name":"Circle.005",
			"primitives":[
				{
					"attributes":{
						"POSITION":20,
						"NORMAL":21,
						"TEXCOORD_0":22
					},
					"indices":23,
					"material":3
				},
				{
					"attributes":{
						"POSITION":24,
						"NORMAL":25,
						"TEXCOORD_0":26
					},
					"indices":27,
					"material":0
				},
				{
					"attributes":{
						"POSITION":28,
						"NORMAL":29,
						"TEXCOORD_0":30
					},
					"indices":31,
					"material":4
				},
				{
					"attributes":{
						"POSITION":32,
						"NORMAL":33,
						"TEXCOORD_0":34
					},
					"indices":35,
					"material":5
				}
			]
		},
		{
			"name":"Cylinder.001",
			"primitives":[
				{
					"attributes":{
						"POSITION":36,
						"NORMAL":37,
						"TEXCOORD_0":38
					},
					"indices":39,
					"material":4
				},
				{
					"attributes":{
						"POSITION":40,
						"NORMAL":41,
						"TEXCOORD_0":42
					},
					"indices":43,
					"material":6
				}
			]
		},
		{
			"name":"OuterWalls.004",
			"primitives":[
				{
					"attributes":{
						"POSITION":44,
						"NORMAL":45,
						"TEXCOORD_0":46
					},
					"indices":47,
					"material":2
				}
			]
		},
		{
			"name":"Sphere",
			"primitives":[
				{
					"attributes":{
						"POSITION":48,
						"NORMAL":49,
						"TEXCOORD_0":50
					},
					"indices":51,
					"material":1
				}
			]
		},
		{
			"name":"BezierCircle",
			"primitives":[
				{
					"attributes":{
						"POSITION":52,
						"NORMAL":53,
						"TEXCOORD_0":54
					},
					"indices":55,
					"material":2
				}
			]
		}
	],
	"accessors":[
		{
			"bufferView":0,
			"componentType":5126,
			"count":2467,
			"max":[
				5.100000381469727,
				3.5999999046325684,
				5.100000381469727
			],
			"min":[
				-5.100000381469727,
				-0.4988747239112854,
				-5.840568542480469
			],
			"type":"VEC3"
		},
		{
			"bufferView":1,
			"componentType":5126,
			"count":2467,
			"type":"VEC3"
		},
		{
			"bufferView":2,
			"componentType":5126,
			"count":2467,
			"type":"VEC2"
		},
		{
			"bufferView":3,
			"componentType":5123,
			"count":8622,
			"type":"SCALAR"
		},
		{
			"bufferView":4,
			"componentType":5126,
			"count":512,
			"max":[
				2.4969849586486816,
				0.10000000149011612,
				2.4969849586486816
			],
			"min":[
				-2.4969849586486816,
				0,
				-2.4969849586486816
			],
			"type":"VEC3"
		},
		{
			"bufferView":5,
			"componentType":5126,
			"count":512,
			"type":"VEC3"
		},
		{
			"bufferView":6,
			"componentType":5126,
			"count":512,
			"type":"VEC2"
		},
		{
			"bufferView":7,
			"componentType":5123,
			"count":1536,
			"type":"SCALAR"
		},
		{
			"bufferView":8,
			"componentType":5126,
			"count":448,
			"max":[
				0.995175838470459,
				0.10000000149011612,
				0.995175838470459
			],
			"min":[
				-0.995175838470459,
				-1.5,
				-0.995175838470459
			],
			"type":"VEC3"
		},
		{
			"bufferView":9,
			"componentType":5126,
			"count":448,
			"type":"VEC3"
		},
		{
			"bufferView":10,
			"componentType":5126,
			"count":448,
			"type":"VEC2"
		},
		{
			"bufferView":11,
			"componentType":5123,
			"count":1524,
			"type":"SCALAR"
		},
		{
			"bufferView":12,
			"componentType":5126,
			"count":644,
			"max":[
				4.287594795227051,
				3.5,
				-5.840568542480469
			],
			"min":[
				-4.287594795227051,
				-2.5980326223695727e-10,
				-21.329004287719727
			],
			"type":"VEC3"
		},
		{
			"bufferView":13,
			"componentType":5126,
			"count":644,
			"type":"VEC3"
		},
		{
			"bufferView":14,
			"componentType":5126,
			"count":644,
			"type":"VEC2"
		},
		{
			"bufferView":15,
			"componentType":5123,
			"count":2520,
			"type":"SCALAR"
		},
		{
			"bufferView":16,
			"componentType":5126,
			"count":512,
			"max":[
				2.495532989501953,
				7.930147171020508,
				2.4955332279205322
			],
			"min":[
				-2.495532989501953,
				3.5999999046325684,
				-2.495532751083374
			],
			"type":"VEC3"
		},
		{
			"bufferView":17,
			"componentType":5126,
			"count":512,
			"type":"VEC3"
		},
		{
			"bufferView":18,
			"componentType":5126,
			"count":512,
			"type":"VEC2"
		},
		{
			"bufferView":19,
			"componentType":5123,
			"count":1536,
			"type":"SCALAR"
		},
		{
			"bufferView":20,
			"componentType":5126,
			"count":76,
			"max":[
				2.1770119667053223,
				1.0813298225402832,
				3.469264030456543
			],
			"min":[
				-2.1770119667053223,
				1.0145177841186523,
				1.9963990449905396
			],
			"type":"VEC3"
		},
		{
			"bufferView":21,
			"componentType":5126,
			"count":76,
			"type":"VEC3"
		},
		{
			"bufferView":22,
			"componentType":5126,
			"count":76,
			"type":"VEC2"
		},
		{
			"bufferView":23,
			"componentType":5123,
			"count":204,
			"type":"SCALAR"
		},
		{
			"bufferView":24,
			"componentType":5126,
			"count":204,
			"max":[
				2.2432124614715576,
				1.0256160497665405,
				3.535996198654175
			],
			"min":[
				-2.2432124614715576,
				0.08890184015035629,
				1.9301955699920654
			],
			"type":"VEC3"
		},
		{
			"bufferView":25,
			"componentType":5126,
			"count":204,
			"type":"VEC3"
		},
		{
			"bufferView":26,
			"componentType":5126,
			"count":204,
			"type":"VEC2"
		},
		{
			"bufferView":27,
			"componentType":5123,
			"count":660,
			"type":"SCALAR"
		},
		{
			"bufferView":28,
			"componentType":5126,
			"count":340,
			"max":[
				2.2432124614715576,
				1.394368052482605,
				3.535996198654175
			],
			"min":[
				-2.2432124614715576,
				1.070231556892395,
				1.9301955699920654
			],
			"type":"VEC3"
		},
		{
			"bufferView":29,
			"componentType":5126,
			"count":340,
			"type":"VEC3"
		},
		{
			"bufferView":30,
			"componentType":5126,
			"count":340,
			"type":"VEC2"
		},
		{
			"bufferView":31,
			"componentType":5123,
			"count":858,
			"type":"SCALAR"
		},
		{
			"bufferView":32,
			"componentType":5126,
			"count":22,
			"max":[
				1.2935842275619507,
				1.3070071935653687,
				3.3792824745178223
			],
			"min":[
				-1.6582752466201782,
				1.0900001525878906,
				2.4497148990631104
			],
			"type":"VEC3"
		},
		{
			"bufferView":33,
			"componentType":5126,
			"count":22,
			"type":"VEC3"
		},
		{
			"bufferView":34,
			"componentType":5126,
			"count":22,
			"type":"VEC2"
		},
		{
			"bufferView":35,
			"componentType":5123,
			"count":54,
			"type":"SCALAR"
		},
		{
			"bufferView":36,
			"componentType":5126,
			"count":799,
			"max":[
				0.05275373160839081,
				0.3265528380870819,
				0.05275373160839081
			],
			"min":[
				-0.05275373160839081,
				-0.3265528380870819,
				-0.05275373160839081
			],
			"type":"VEC3"
		},
		{
			"bufferView":37,
			"componentType":5126,
			"count":799,
			"type":"VEC3"
		},
		{
			"bufferView":38,
			"componentType":5126,
			"count":799,
			"type":"VEC2"
		},
		{
			"bufferView":39,
			"componentType":5123,
			"count":3168,
			"type":"SCALAR"
		},
		{
			"bufferView":40,
			"componentType":5126,
			"count":206,
			"max":[
				0.04000002145767212,
				0.31406980752944946,
				0.04000002145767212
			],
			"min":[
				-0.04000002145767212,
				-0.31406980752944946,
				-0.04000002145767212
			],
			"type":"VEC3"
		},
		{
			"bufferView":41,
			"componentType":5126,
			"count":206,
			"type":"VEC3"
		},
		{
			"bufferView":42,
			"componentType":5126,
			"count":206,
			"type":"VEC2"
		},
		{
			"bufferView":43,
			"componentType":5123,
			"count":708,
			"type":"SCALAR"
		},
		{
			"bufferView":44,
			"componentType":5126,
			"count":1704,
			"max":[
				6.285189628601074,
				4.90775203704834,
				6.285189628601074
			],
			"min":[
				-6.285189628601074,
				2.7721283435821533,
				-22.514142990112305
			],
			"type":"VEC3"
		},
		{
			"bufferView":45,
			"componentType":5126,
			"count":1704,
			"type":"VEC3"
		},
		{
			"bufferView":46,
			"componentType":5126,
			"count":1704,
			"type":"VEC2"
		},
		{
			"bufferView":47,
			"componentType":5123,
			"count":9669,
			"type":"SCALAR"
		},
		{
			"bufferView":48,
			"componentType":5126,
			"count":779,
			"max":[
				2.4599995613098145,
				6.857657432556152,
				2.4599990844726562
			],
			"min":[
				-2.459998607635498,
				3.0309548377990723,
				-2.4600000381469727
			],
			"type":"VEC3"
		},
		{
			"bufferView":49,
			"componentType":5126,
			"count":779,
			"type":"VEC3"
		},
		{
			"bufferView":50,
			"componentType":5126,
			"count":779,
			"type":"VEC2"
		},
		{
			"bufferView":51,
			"componentType":5123,
			"count":4032,
			"type":"SCALAR"
		},
		{
			"bufferView":52,
			"componentType":5126,
			"count":637,
			"max":[
				3.0401954650878906,
				1.3077393770217896,
				3.0401954650878906
			],
			"min":[
				-3.0401954650878906,
				-0.7646436095237732,
				-3.0401952266693115
			],
			"type":"VEC3"
		},
		{
			"bufferView":53,
			"componentType":5126,
			"count":637,
			"type":"VEC3"
		},
		{
			"bufferView":54,
			"componentType":5126,
			"count":637,
			"type":"VEC2"
		},
		{
			"bufferView":55,
			"componentType":5123,
			"count":3594,
			"type":"SCALAR"
		}
	],
	"bufferViews":[
		{
			"buffer":0,
			"byteLength":29604,
			"byteOffset":0,
			"target":34962
		},
		{
			"buffer":0,
			"byteLength":29604,
			"byteOffset":29604,
			"target":34962
		},
		{
			"buffer":0,
			"byteLength":19736,
			"byteOffset":59208,
			"target":34962
		},
		{
			"buffer":0,
			"byteLength":17244,
			"byteOffset":78944,
			"target":34963
		},
		{
			"buffer":0,
			"byteLength":6144,
			"byteOffset":96188,
			"target":34962
		},
		{
			"buffer":0,
			"byteLength":6144,
			"byteOffset":102332,
			"target":34962
		},
		{
			"buffer":0,
			"byteLength":4096,
			"byteOffset":108476,
			"target":34962
		},
		{
			"buffer":0,
			"byteLength":3072,
			"byteOffset":112572,
			"target":34963
		},
		{
			"buffer":0,
			"byteLength":5376,
			"byteOffset":115644,
			"target":34962
		},
		{
			"buffer":0,
			"byteLength":5376,
			"byteOffset":121020,
			"target":34962
		},
		{
			"buffer":0,
			"byteLength":3584,
			"byteOffset":126396,
			"target":34962
		},
		{
			"buffer":0,
			"byteLength":3048,
			"byteOffset":129980,
			"target":34963
		},
		{
			"buffer":0,
			"byteLength":7728,
			"byteOffset":133028,
			"target":34962
		},
		{
			"buffer":0,
			"byteLength":7728,
			"byteOffset":140756,
			"target":34962
		},
		{
			"buffer":0,
			"byteLength":5152,
			"byteOffset":148484,
			"target":34962
		},
		{
			"buffer":0,
			"byteLength":5040,
			"byteOffset":153636,
			"target":34963
		},
		{
			"buffer":0,
			"byteLength":6144,
			"byteOffset":158676,
			"target":34962
		},
		{
			"buffer":0,
			"byteLength":6144,
			"byteOffset":164820,
			"target":34962
		},
		{
			"buffer":0,
			"byteLength":4096,
			"byteOffset":170964,
			"target":34962
		},
		{
			"buffer":0,
			"byteLength":3072,
			"byteOffset":175060,
			"target":34963
		},
		{
			"buffer":0,
			"byteLength":912,
			"byteOffset":178132,
			"target":34962
		},
		{
			"buffer":0,
			"byteLength":912,
			"byteOffset":179044,
			"target":34962
		},
		{
			"buffer":0,
			"byteLength":608,
			"byteOffset":179956,
			"target":34962
		},
		{
			"buffer":0,
			"byteLength":408,
			"byteOffset":180564,
			"target":34963
		},
		{
			"buffer":0,
			"byteLength":2448,
			"byteOffset":180972,
			"target":34962
		},
		{
			"buffer":0,
			"byteLength":2448,
			"byteOffset":183420,
			"target":34962
		},
		{
			"buffer":0,
			"byteLength":1632,
			"byteOffset":185868,
			"target":34962
		},
		{
			"buffer":0,
			"byteLength":1320,
			"byteOffset":187500,
			"target":34963
		},
		{
			"buffer":0,
			"byteLength":4080,
			"byteOffset":188820,
			"target":34962
		},
		{
			"buffer":0,
			"byteLength":4080,
			"byteOffset":192900,
			"target":34962
		},
		{
			"buffer":0,
			"byteLength":2720,
			"byteOffset":196980,
			"target":34962
		},
		{
			"buffer":0,
			"byteLength":1716,
			"byteOffset":199700,
			"target":34963
		},
		{
			"buffer":0,
			"byteLength":264,
			"byteOffset":201416,
			"target":34962
		},
		{
			"buffer":0,
			"byteLength":264,
			"byteOffset":201680,
			"target":34962
		},
		{
			"buffer":0,
			"byteLength":176,
			"byteOffset":201944,
			"target":34962
		},
		{
			"buffer":0,
			"byteLength":108,
			"byteOffset":202120,
			"target":34963
		},
		{
			"buffer":0,
			"byteLength":9588,
			"byteOffset":202228,
			"target":34962
		},
		{
			"buffer":0,
			"byteLength":9588,
			"byteOffset":211816,
			"target":34962
		},
		{
			"buffer":0,
			"byteLength":6392,
			"byteOffset":221404,
			"target":34962
		},
		{
			"buffer":0,
			"byteLength":6336,
			"byteOffset":227796,
			"target":34963
		},
		{
			"buffer":0,
			"byteLength":2472,
			"byteOffset":234132,
			"target":34962
		},
		{
			"buffer":0,
			"byteLength":2472,
			"byteOffset":236604,
			"target":34962
		},
		{
			"buffer":0,
			"byteLength":1648,
			"byteOffset":239076,
			"target":34962
		},
		{
			"buffer":0,
			"byteLength":1416,
			"byteOffset":240724,
			"target":34963
		},
		{
			"buffer":0,
			"byteLength":20448,
			"byteOffset":242140,
			"target":34962
		},
		{
			"buffer":0,
			"byteLength":20448,
			"byteOffset":262588,
			"target":34962
		},
		{
			"buffer":0,
			"byteLength":13632,
			"byteOffset":283036,
			"target":34962
		},
		{
			"buffer":0,
			"byteLength":19338,
			"byteOffset":296668,
			"target":34963
		},
		{
			"buffer":0,
			"byteLength":9348,
			"byteOffset":316008,
			"target":34962
		},
		{
			"buffer":0,
			"byteLength":9348,
			"byteOffset":325356,
			"target":34962
		},
		{
			"buffer":0,
			"byteLength":6232,
			"byteOffset":334704,
			"target":34962
		},
		{
			"buffer":0,
			"byteLength":8064,
			"byteOffset":340936,
			"target":34963
		},
		{
			"buffer":0,
			"byteLength":7644,
			"byteOffset":349000,
			"target":34962
		},
		{
			"buffer":0,
			"byteLength":7644,
			"byteOffset":356644,
			"target":34962
		},
		{
			"buffer":0,
			"byteLength":5096,
			"byteOffset":364288,
			"target":34962
		},
		{
			"buffer":0,
			"byteLength":7188,
			"byteOffset":369384,
			"target":34963
		}
	],
	"buffers":[
		{
			"byteLength":376572,
			"uri":"Spaceship_v2.bin"
		}
	]
}
