{
	"asset":{
		"generator":"Khronos glTF Blender I/O v4.0.44",
		"version":"2.0"
	},
	"scene":0,
	"scenes":[
		{
			"name":"Scene",
			"nodes":[
				2
			]
		}
	],
	"nodes":[
		{
			"mesh":0,
			"name":"DoorWorkshopNeg"
		},
		{
			"mesh":1,
			"name":"DoorWorkshopPos"
		},
		{
			"children":[
				0,
				1
			],
			"mesh":2,
			"name":"CockpitToWorkshopTransition",
			"translation":[
				0,
				0.018375754356384277,
				-5.2072367668151855
			]
		}
	],
	"materials":[
		{
			"doubleSided":true,
			"name":"Shipwalls",
			"pbrMetallicRoughness":{
				"baseColorFactor":[
					0.4544734060764313,
					0.4544734060764313,
					0.4544734060764313,
					1
				],
				"metallicFactor":0.6010362505912781,
				"roughnessFactor":0.727979302406311
			}
		}
	],
	"meshes":[
		{
			"name":"Cube.009",
			"primitives":[
				{
					"attributes":{
						"POSITION":0,
						"NORMAL":1,
						"TEXCOORD_0":2
					},
					"indices":3
				}
			]
		},
		{
			"name":"Cube.010",
			"primitives":[
				{
					"attributes":{
						"POSITION":4,
						"NORMAL":5,
						"TEXCOORD_0":6
					},
					"indices":7
				}
			]
		},
		{
			"name":"Cube.008",
			"primitives":[
				{
					"attributes":{
						"POSITION":8,
						"NORMAL":9,
						"TEXCOORD_0":10
					},
					"indices":11,
					"material":0
				}
			]
		}
	],
	"accessors":[
		{
			"bufferView":0,
			"componentType":5126,
			"count":24,
			"max":[
				0,
				3.392094135284424,
				0.009999990463256836
			],
			"min":[
				-0.9619853496551514,
				0,
				-0.009999990463256836
			],
			"type":"VEC3"
		},
		{
			"bufferView":1,
			"componentType":5126,
			"count":24,
			"type":"VEC3"
		},
		{
			"bufferView":2,
			"componentType":5126,
			"count":24,
			"type":"VEC2"
		},
		{
			"bufferView":3,
			"componentType":5123,
			"count":36,
			"type":"SCALAR"
		},
		{
			"bufferView":4,
			"componentType":5126,
			"count":24,
			"max":[
				0.9619853496551514,
				3.392094135284424,
				0.009999990463256836
			],
			"min":[
				0,
				0,
				-0.009999990463256836
			],
			"type":"VEC3"
		},
		{
			"bufferView":5,
			"componentType":5126,
			"count":24,
			"type":"VEC3"
		},
		{
			"bufferView":6,
			"componentType":5126,
			"count":24,
			"type":"VEC2"
		},
		{
			"bufferView":7,
			"componentType":5123,
			"count":36,
			"type":"SCALAR"
		},
		{
			"bufferView":8,
			"componentType":5126,
			"count":572,
			"max":[
				2.0871200561523438,
				3.5066328048706055,
				0.26762688159942627
			],
			"min":[
				-2.0871200561523438,
				0,
				-0.2676272988319397
			],
			"type":"VEC3"
		},
		{
			"bufferView":9,
			"componentType":5126,
			"count":572,
			"type":"VEC3"
		},
		{
			"bufferView":10,
			"componentType":5126,
			"count":572,
			"type":"VEC2"
		},
		{
			"bufferView":11,
			"componentType":5123,
			"count":1212,
			"type":"SCALAR"
		}
	],
	"bufferViews":[
		{
			"buffer":0,
			"byteLength":288,
			"byteOffset":0,
			"target":34962
		},
		{
			"buffer":0,
			"byteLength":288,
			"byteOffset":288,
			"target":34962
		},
		{
			"buffer":0,
			"byteLength":192,
			"byteOffset":576,
			"target":34962
		},
		{
			"buffer":0,
			"byteLength":72,
			"byteOffset":768,
			"target":34963
		},
		{
			"buffer":0,
			"byteLength":288,
			"byteOffset":840,
			"target":34962
		},
		{
			"buffer":0,
			"byteLength":288,
			"byteOffset":1128,
			"target":34962
		},
		{
			"buffer":0,
			"byteLength":192,
			"byteOffset":1416,
			"target":34962
		},
		{
			"buffer":0,
			"byteLength":72,
			"byteOffset":1608,
			"target":34963
		},
		{
			"buffer":0,
			"byteLength":6864,
			"byteOffset":1680,
			"target":34962
		},
		{
			"buffer":0,
			"byteLength":6864,
			"byteOffset":8544,
			"target":34962
		},
		{
			"buffer":0,
			"byteLength":4576,
			"byteOffset":15408,
			"target":34962
		},
		{
			"buffer":0,
			"byteLength":2424,
			"byteOffset":19984,
			"target":34963
		}
	],
	"buffers":[
		{
			"byteLength":22408,
			"uri":"DoorWorkshop.bin"
		}
	]
}
