{
	"asset":{
		"generator":"Khronos glTF Blender I/O v4.0.44",
		"version":"2.0"
	},
	"scene":0,
	"scenes":[
		{
			"name":"Scene",
			"nodes":[
				8
			]
		}
	],
	"nodes":[
		{
			"mesh":0,
			"name":"AssDoorBlade.001",
			"translation":[
				3.7444610595703125,
				-0.0030622482299804688,
				-1.6000773906707764
			]
		},
		{
			"mesh":1,
			"name":"AssDoorBlade.002",
			"translation":[
				3.7791593074798584,
				-0.0030622482299804688,
				1.516308069229126
			]
		},
		{
			"mesh":2,
			"name":"AssDoorBlade.003",
			"translation":[
				1.6000773906707764,
				-0.0030622482299804688,
				3.7444608211517334
			]
		},
		{
			"mesh":3,
			"name":"AssDoorBlade.004",
			"translation":[
				-1.516308069229126,
				-0.0030622482299804688,
				3.7791593074798584
			]
		},
		{
			"mesh":4,
			"name":"AssDoorBlade.005",
			"translation":[
				-3.7444608211517334,
				-0.0030622482299804688,
				1.6000771522521973
			]
		},
		{
			"mesh":5,
			"name":"AssDoorBlade.006",
			"translation":[
				-3.7791593074798584,
				-0.0030622482299804688,
				-1.516308069229126
			]
		},
		{
			"mesh":6,
			"name":"AssDoorBlade.007",
			"translation":[
				-1.6000771522521973,
				-0.0030622482299804688,
				-3.7444608211517334
			]
		},
		{
			"mesh":7,
			"name":"AssDoorBlade",
			"translation":[
				1.516308069229126,
				-0.0030622482299804688,
				-3.7791593074798584
			]
		},
		{
			"children":[
				0,
				1,
				2,
				3,
				4,
				5,
				6,
				7
			],
			"name":"AssDoorPivot",
			"scale":[
				0.6198936700820923,
				0.2796458601951599,
				0.6198936700820923
			],
			"translation":[
				0,
				3.5369293689727783,
				0
			]
		}
	],
	"materials":[
		{
			"doubleSided":true,
			"name":"ControlPanelIron",
			"pbrMetallicRoughness":{
				"baseColorFactor":[
					0.08256218582391739,
					0.08256218582391739,
					0.08256218582391739,
					1
				],
				"metallicFactor":0.7668393850326538,
				"roughnessFactor":0.1787564754486084
			}
		}
	],
	"meshes":[
		{
			"name":"Cube",
			"primitives":[
				{
					"attributes":{
						"POSITION":0,
						"NORMAL":1,
						"TEXCOORD_0":2
					},
					"indices":3,
					"material":0
				}
			]
		},
		{
			"name":"Cube.001",
			"primitives":[
				{
					"attributes":{
						"POSITION":4,
						"NORMAL":5,
						"TEXCOORD_0":6
					},
					"indices":7,
					"material":0
				}
			]
		},
		{
			"name":"Cube.002",
			"primitives":[
				{
					"attributes":{
						"POSITION":8,
						"NORMAL":9,
						"TEXCOORD_0":10
					},
					"indices":11,
					"material":0
				}
			]
		},
		{
			"name":"Cube.003",
			"primitives":[
				{
					"attributes":{
						"POSITION":12,
						"NORMAL":13,
						"TEXCOORD_0":14
					},
					"indices":15,
					"material":0
				}
			]
		},
		{
			"name":"Cube.004",
			"primitives":[
				{
					"attributes":{
						"POSITION":16,
						"NORMAL":17,
						"TEXCOORD_0":18
					},
					"indices":19,
					"material":0
				}
			]
		},
		{
			"name":"Cube.005",
			"primitives":[
				{
					"attributes":{
						"POSITION":20,
						"NORMAL":21,
						"TEXCOORD_0":22
					},
					"indices":23,
					"material":0
				}
			]
		},
		{
			"name":"Cube.006",
			"primitives":[
				{
					"attributes":{
						"POSITION":24,
						"NORMAL":25,
						"TEXCOORD_0":26
					},
					"indices":27,
					"material":0
				}
			]
		},
		{
			"name":"Cube.007",
			"primitives":[
				{
					"attributes":{
						"POSITION":28,
						"NORMAL":29,
						"TEXCOORD_0":30
					},
					"indices":31,
					"material":0
				}
			]
		}
	],
	"accessors":[
		{
			"bufferView":0,
			"componentType":5126,
			"count":30,
			"max":[
				0.7688407897949219,
				0.12154801189899445,
				1.6601818799972534
			],
			"min":[
				-3.8959624767303467,
				-0.12154801189899445,
				-1.5773327350616455
			],
			"type":"VEC3"
		},
		{
			"bufferView":1,
			"componentType":5126,
			"count":30,
			"type":"VEC3"
		},
		{
			"bufferView":2,
			"componentType":5126,
			"count":30,
			"type":"VEC2"
		},
		{
			"bufferView":3,
			"componentType":5123,
			"count":48,
			"type":"SCALAR"
		},
		{
			"bufferView":4,
			"componentType":5126,
			"count":30,
			"max":[
				0.797473669052124,
				0.12154801189899445,
				1.6584725379943848
			],
			"min":[
				-3.9276230335235596,
				-0.12154801934957504,
				-1.6584725379943848
			],
			"type":"VEC3"
		},
		{
			"bufferView":5,
			"componentType":5126,
			"count":30,
			"type":"VEC3"
		},
		{
			"bufferView":6,
			"componentType":5126,
			"count":30,
			"type":"VEC2"
		},
		{
			"bufferView":7,
			"componentType":5123,
			"count":48,
			"type":"SCALAR"
		},
		{
			"bufferView":8,
			"componentType":5126,
			"count":30,
			"max":[
				1.577332615852356,
				0.12154801189899445,
				0.7688405513763428
			],
			"min":[
				-1.6601817607879639,
				-0.12154801934957504,
				-3.8959622383117676
			],
			"type":"VEC3"
		},
		{
			"bufferView":9,
			"componentType":5126,
			"count":30,
			"type":"VEC3"
		},
		{
			"bufferView":10,
			"componentType":5126,
			"count":30,
			"type":"VEC2"
		},
		{
			"bufferView":11,
			"componentType":5123,
			"count":48,
			"type":"SCALAR"
		},
		{
			"bufferView":12,
			"componentType":5126,
			"count":30,
			"max":[
				1.6584725379943848,
				0.12154801189899445,
				0.7974734306335449
			],
			"min":[
				-1.6584722995758057,
				-0.12154801934957504,
				-3.9276227951049805
			],
			"type":"VEC3"
		},
		{
			"bufferView":13,
			"componentType":5126,
			"count":30,
			"type":"VEC3"
		},
		{
			"bufferView":14,
			"componentType":5126,
			"count":30,
			"type":"VEC2"
		},
		{
			"bufferView":15,
			"componentType":5123,
			"count":48,
			"type":"SCALAR"
		},
		{
			"bufferView":16,
			"componentType":5126,
			"count":30,
			"max":[
				3.8959622383117676,
				0.12154801189899445,
				1.5773324966430664
			],
			"min":[
				-0.7688405513763428,
				-0.12154801934957504,
				-1.6601816415786743
			],
			"type":"VEC3"
		},
		{
			"bufferView":17,
			"componentType":5126,
			"count":30,
			"type":"VEC3"
		},
		{
			"bufferView":18,
			"componentType":5126,
			"count":30,
			"type":"VEC2"
		},
		{
			"bufferView":19,
			"componentType":5123,
			"count":48,
			"type":"SCALAR"
		},
		{
			"bufferView":20,
			"componentType":5126,
			"count":30,
			"max":[
				3.9276227951049805,
				0.12154801189899445,
				1.6584725379943848
			],
			"min":[
				-0.7974734306335449,
				-0.12154801934957504,
				-1.6584722995758057
			],
			"type":"VEC3"
		},
		{
			"bufferView":21,
			"componentType":5126,
			"count":30,
			"type":"VEC3"
		},
		{
			"bufferView":22,
			"componentType":5126,
			"count":30,
			"type":"VEC2"
		},
		{
			"bufferView":23,
			"componentType":5123,
			"count":48,
			"type":"SCALAR"
		},
		{
			"bufferView":24,
			"componentType":5126,
			"count":30,
			"max":[
				1.6601816415786743,
				0.12154801189899445,
				3.8959622383117676
			],
			"min":[
				-1.5773324966430664,
				-0.12154801934957504,
				-0.7688405513763428
			],
			"type":"VEC3"
		},
		{
			"bufferView":25,
			"componentType":5126,
			"count":30,
			"type":"VEC3"
		},
		{
			"bufferView":26,
			"componentType":5126,
			"count":30,
			"type":"VEC2"
		},
		{
			"bufferView":27,
			"componentType":5123,
			"count":48,
			"type":"SCALAR"
		},
		{
			"bufferView":28,
			"componentType":5126,
			"count":30,
			"max":[
				1.6584722995758057,
				0.12154801189899445,
				3.9276227951049805
			],
			"min":[
				-1.6584725379943848,
				-0.12154801934957504,
				-0.7974734306335449
			],
			"type":"VEC3"
		},
		{
			"bufferView":29,
			"componentType":5126,
			"count":30,
			"type":"VEC3"
		},
		{
			"bufferView":30,
			"componentType":5126,
			"count":30,
			"type":"VEC2"
		},
		{
			"bufferView":31,
			"componentType":5123,
			"count":48,
			"type":"SCALAR"
		}
	],
	"bufferViews":[
		{
			"buffer":0,
			"byteLength":360,
			"byteOffset":0,
			"target":34962
		},
		{
			"buffer":0,
			"byteLength":360,
			"byteOffset":360,
			"target":34962
		},
		{
			"buffer":0,
			"byteLength":240,
			"byteOffset":720,
			"target":34962
		},
		{
			"buffer":0,
			"byteLength":96,
			"byteOffset":960,
			"target":34963
		},
		{
			"buffer":0,
			"byteLength":360,
			"byteOffset":1056,
			"target":34962
		},
		{
			"buffer":0,
			"byteLength":360,
			"byteOffset":1416,
			"target":34962
		},
		{
			"buffer":0,
			"byteLength":240,
			"byteOffset":1776,
			"target":34962
		},
		{
			"buffer":0,
			"byteLength":96,
			"byteOffset":2016,
			"target":34963
		},
		{
			"buffer":0,
			"byteLength":360,
			"byteOffset":2112,
			"target":34962
		},
		{
			"buffer":0,
			"byteLength":360,
			"byteOffset":2472,
			"target":34962
		},
		{
			"buffer":0,
			"byteLength":240,
			"byteOffset":2832,
			"target":34962
		},
		{
			"buffer":0,
			"byteLength":96,
			"byteOffset":3072,
			"target":34963
		},
		{
			"buffer":0,
			"byteLength":360,
			"byteOffset":3168,
			"target":34962
		},
		{
			"buffer":0,
			"byteLength":360,
			"byteOffset":3528,
			"target":34962
		},
		{
			"buffer":0,
			"byteLength":240,
			"byteOffset":3888,
			"target":34962
		},
		{
			"buffer":0,
			"byteLength":96,
			"byteOffset":4128,
			"target":34963
		},
		{
			"buffer":0,
			"byteLength":360,
			"byteOffset":4224,
			"target":34962
		},
		{
			"buffer":0,
			"byteLength":360,
			"byteOffset":4584,
			"target":34962
		},
		{
			"buffer":0,
			"byteLength":240,
			"byteOffset":4944,
			"target":34962
		},
		{
			"buffer":0,
			"byteLength":96,
			"byteOffset":5184,
			"target":34963
		},
		{
			"buffer":0,
			"byteLength":360,
			"byteOffset":5280,
			"target":34962
		},
		{
			"buffer":0,
			"byteLength":360,
			"byteOffset":5640,
			"target":34962
		},
		{
			"buffer":0,
			"byteLength":240,
			"byteOffset":6000,
			"target":34962
		},
		{
			"buffer":0,
			"byteLength":96,
			"byteOffset":6240,
			"target":34963
		},
		{
			"buffer":0,
			"byteLength":360,
			"byteOffset":6336,
			"target":34962
		},
		{
			"buffer":0,
			"byteLength":360,
			"byteOffset":6696,
			"target":34962
		},
		{
			"buffer":0,
			"byteLength":240,
			"byteOffset":7056,
			"target":34962
		},
		{
			"buffer":0,
			"byteLength":96,
			"byteOffset":7296,
			"target":34963
		},
		{
			"buffer":0,
			"byteLength":360,
			"byteOffset":7392,
			"target":34962
		},
		{
			"buffer":0,
			"byteLength":360,
			"byteOffset":7752,
			"target":34962
		},
		{
			"buffer":0,
			"byteLength":240,
			"byteOffset":8112,
			"target":34962
		},
		{
			"buffer":0,
			"byteLength":96,
			"byteOffset":8352,
			"target":34963
		}
	],
	"buffers":[
		{
			"byteLength":8448,
			"uri":"DoorCrowsnest.bin"
		}
	]
}
