{
	"asset":{
		"generator":"Khronos glTF Blender I/O v4.0.44",
		"version":"2.0"
	},
	"scene":0,
	"scenes":[
		{
			"name":"Scene",
			"nodes":[
				0
			]
		}
	],
	"nodes":[
		{
			"mesh":0,
			"name":"FuelMeter",
			"rotation":[
				0.20785054564476013,
				-0.6039429306983948,
				0.7510777711868286,
				0.16713280975818634
			],
			"translation":[
				1.5491383075714111,
				1.3178074359893799,
				2.584580421447754
			]
		}
	],
	"materials":[
		{
			"doubleSided":true,
			"name":"ControlPanelTop",
			"pbrMetallicRoughness":{
				"baseColorFactor":[
					0.076657235622406,
					0.0080482866615057,
					0.006751528475433588,
					1
				],
				"metallicFactor":0,
				"roughnessFactor":0.10621762275695801
			}
		},
		{
			"doubleSided":true,
			"name":"FuelMeter",
			"pbrMetallicRoughness":{
				"baseColorFactor":[
					0.800000011920929,
					0.800000011920929,
					0.800000011920929,
					1
				],
				"metallicFactor":0,
				"roughnessFactor":0.5
			}
		}
	],
	"meshes":[
		{
			"name":"Cylinder.001",
			"primitives":[
				{
					"attributes":{
						"POSITION":0,
						"NORMAL":1,
						"TEXCOORD_0":2
					},
					"indices":3,
					"material":0
				},
				{
					"attributes":{
						"POSITION":4,
						"NORMAL":5,
						"TEXCOORD_0":6
					},
					"indices":7,
					"material":1
				}
			]
		}
	],
	"accessors":[
		{
			"bufferView":0,
			"componentType":5126,
			"count":799,
			"max":[
				0.05275373160839081,
				0.3265528380870819,
				0.05275373160839081
			],
			"min":[
				-0.05275373160839081,
				-0.3265528380870819,
				-0.05275373160839081
			],
			"type":"VEC3"
		},
		{
			"bufferView":1,
			"componentType":5126,
			"count":799,
			"type":"VEC3"
		},
		{
			"bufferView":2,
			"componentType":5126,
			"count":799,
			"type":"VEC2"
		},
		{
			"bufferView":3,
			"componentType":5123,
			"count":3168,
			"type":"SCALAR"
		},
		{
			"bufferView":4,
			"componentType":5126,
			"count":216,
			"max":[
				0.04000002145767212,
				0.31406980752944946,
				0.04000002145767212
			],
			"min":[
				-0.04000002145767212,
				-0.31406980752944946,
				-0.04000002145767212
			],
			"type":"VEC3"
		},
		{
			"bufferView":5,
			"componentType":5126,
			"count":216,
			"type":"VEC3"
		},
		{
			"bufferView":6,
			"componentType":5126,
			"count":216,
			"type":"VEC2"
		},
		{
			"bufferView":7,
			"componentType":5123,
			"count":708,
			"type":"SCALAR"
		}
	],
	"bufferViews":[
		{
			"buffer":0,
			"byteLength":9588,
			"byteOffset":0,
			"target":34962
		},
		{
			"buffer":0,
			"byteLength":9588,
			"byteOffset":9588,
			"target":34962
		},
		{
			"buffer":0,
			"byteLength":6392,
			"byteOffset":19176,
			"target":34962
		},
		{
			"buffer":0,
			"byteLength":6336,
			"byteOffset":25568,
			"target":34963
		},
		{
			"buffer":0,
			"byteLength":2592,
			"byteOffset":31904,
			"target":34962
		},
		{
			"buffer":0,
			"byteLength":2592,
			"byteOffset":34496,
			"target":34962
		},
		{
			"buffer":0,
			"byteLength":1728,
			"byteOffset":37088,
			"target":34962
		},
		{
			"buffer":0,
			"byteLength":1416,
			"byteOffset":38816,
			"target":34963
		}
	],
	"buffers":[
		{
			"byteLength":40232,
			"uri":"FuelMeter.bin"
		}
	]
}
